<?xml version="1.0" encoding="UTF-8"?>
<svg viewBox="0 0 640 480" xmlns="http://www.w3.org/2000/svg">
 <g transform="rotate(90 318.76 209.98)">
  <g fill="#014401" stroke="#014401">
   <path d="m349.85 333.97c2.7851-2.868 5.5987-5.3722 8.1799-9.0501 5.5159-8.3689 10.183-18.052 14.233-29.211 4.6472-12.743 6.072-27.337 6.2061-42.7-0.7829-16.08-4.9508-28.705-10.486-39.989-6.7453-11.545-14.682-19.596-23.357-23.419-9.6039-3.6007-19.093-0.58656-28.365 4.5901-8.5675 5.433-15.661 15.477-21.128 29.457-5.0634 15.391-3.7075 31.114-0.50275 47.216 4.9707 19.125 12.426 35.015 19.286 51.484 7.5332 16.633 13.434 35.499 18.328 55.526 1.6755 12.606 5.3626 26.307 4.4553 39.143-0.076782 1.0864 0.70053 1.3001 0.77615 0.21335 1.1086-15.934 3.3621-27.694-1.6933-42.914-5.3677-20.013-12.469-37.787-18.899-56.473-5.9633-16.595-12.171-33.109-16.68-51.482-2.6329-12.267-3.7717-24.315-0.70334-36.831 4.0723-13.977 10.139-23.23 17.757-29.015 8.642-5.8948 17.626-8.2148 26.713-5.0901 8.3187 3.6739 16.273 7.9706 22.306 20.796 4.8793 10.464 8.655 22.35 9.2009 36.924 0.48703 14.265-1.4297 27.378-5.4251 39.351-3.9256 10.353-8.6013 19.725-13.946 27.218-2.2075 3.2537-4.3524 8.003-7.0831 9.1656-1.8665 0.79459-0.86755 6.8337 0.82626 5.0895z"/>
   <path d="m270.83 39.404c-2.7275-2.7372-5.669-4.0092-8.6437-5.2029-6.1898-1.9634-12.436-1.3677-18.586 0.70299-6.0124 3.2683-10.404 11.074-14.457 20.008-3.5695 9.6461-4.6041 19.341-2.3639 30.481 2.9784 11.954 9.0022 18.55 14.466 25.465 6.741 7.9808 13.679 15.258 20.559 22.747 7.9226 7.7636 15.018 17.938 21.918 28.76 7.9093 12.972 14.281 28.843 19.694 46.01 5.371 16.141 8.0676 34.39 9.6757 53.238 1.5271 14.165 0.084137 27.601-2.3865 40.899-0.19125 1.0296 0.54492 1.5648 0.73556 0.53479 2.503-13.522 3.725-27.496 3.5049-41.961-1.1882-19.69-4.6934-37.783-10.068-54.56-5.6975-17.246-11.674-34.283-19.556-47.97-6.7564-11.658-14.041-22.119-21.763-31.142-6.7067-7.6006-13.516-14.974-19.81-23.881-4.3768-6.2167-8.7051-12.788-11.313-22.369-1.2409-7.1512-1.5863-13.98 0.4592-20.82 2.5855-9.1409 6.7576-15.389 11.609-19.441 5.5633-4.9317 11.348-6.5715 17.36-3.8211 2.8011 1.3442 5.6123 2.9175 8.1961 5.5 1.1234 1.1228 1.8928-2.0498 0.77051-3.1762z"/>
   <path d="m287 208.05c-0.91083-2.6254-2.6274-3.7166-4.0736-5.0155-4.0431-3.754-7.4931-9.2985-10.717-15.323-4.3935-8.4648-7.5985-18.609-10.477-29.214-2.4092-10.482-3.4206-22.002-3.2447-33.468 0.63843-7.8596 1.4103-15.797 5.0435-20.021 0.47778-0.55548 0.078278-1.8957-0.39828-1.3361-4.6983 5.517-9.1273 8.9358-8.6616 21.684 0.63809 12.378 3.2478 23.327 6.0215 34.374 2.6499 11.194 6.0762 21.585 10.291 30.742 3.1186 6.8219 6.3873 13.353 9.9368 19.305 1.1448 1.9589 2.4804 4.6174 3.9524 4.9068 2.8704 0.56448 3.9604-1.9263 2.3272-6.6342z"/>
   <path d="m327.62 347.47c-0.48306-3.606-2.2247-6.1913-3.4436-9.0881-3.0434-8.0054-4.8117-17.065-6.2658-26.567-1.053-11.051-0.96619-22.149 0.62314-32.936 1.2954-9.0031 3.8497-16.952 7.2674-23.352 3.6537-6.5292 7.9937-7.359 12.685-6.2314 3.2326 0.98074 5.9251 3.7861 8.6681 7.095 0.47321 0.57071 0.8808-0.75552 0.40735-1.3254-2.8184-3.3923-5.558-7.1346-8.6399-9.5572-5.7278-3.6925-11.323-4.5064-16.407 3.0865-4.2547 7.8635-6.9978 17.308-8.1262 28.727-0.63159 12.058-0.2601 23.944 1.9344 35.404 1.3759 9.8574 2.9911 19.827 5.4669 28.819 0.96661 3.553 1.8656 7.956 3.7928 9.3962 1.7779 1.3287 2.5247 0.16696 2.0375-3.4701z"/>
   <path d="m302.44 282.14c-1.3525-2.1728-2.1722-5.2175-3.069-8.1127-2.3202-7.6976-5.0843-14.793-7.9304-21.744-4.0848-10.085-8.6346-19.34-13.322-28.315-4.7154-7.3892-8.3649-16.285-11.974-25.659-3.3041-10.145-7.3871-14.484-13.244-10.376-3.0453 3.0689-4.071 8.7967-5.5945 14.392-0.40933 0.65172-0.81863 1.3034-1.228 1.9552-0.43179 0.68752-0.46475 0.95299-4.27e-4 1.5515 0.50635 0.65265 1.0126 1.3053 1.519 1.9579 3.0375 3.6279 6.5993 3.37 9.7692 0.099091 1.0341-4.6577 3.6683-3.2325 6.0313-2.3346 5.6672 4.1398 10.076 10.7 14.177 19.53 4.6652 8.9312 9.1935 18.141 13.258 28.177 2.8248 6.8975 5.5687 13.938 7.8711 21.578 0.88315 2.8512 1.9324 5.6205 2.3632 8.893 0.2839 2.1561 2.2475-0.18744 1.3737-1.5914z"/>
   <path d="m345.47 196c1.3033-0.22359 2.6169-0.53844 3.9325-0.72086 4.0697 0.077759 8.035 2.4708 11.888 4.8591 7.6772 6.1936 14.482 15.614 21.092 25.357 8.9864 13.667 16.832 29.922 22.794 49.003 4.414 13.538 0.25897 28.531 1.8939 42.252-0.61853 1.8078-1.2371 3.6155-1.8555 5.4233-0.31073 0.90823 0.34064 1.7783 0.64957 0.86762 0.64145-1.8904 1.2828-3.7808 1.9243-5.6713 7.7164-11.707 3.1492-30.716-1.7983-43.91-6.3545-18.772-13.994-35.555-23.14-49.209-6.6672-9.8249-13.532-19.319-21.276-25.559-3.8617-3.5717-7.8041-6.6643-12.007-8.2604-1.459-0.47122-3.0102-0.96645-4.4305-0.0867-1.9404 1.2019-1.6922 6.0023 0.33347 5.6549z"/>
   <path d="m310.67 333.62c-1.3568-2.903-2.7824-5.7154-4.284-8.3409-4.1035-6.6166-7.6409-14.272-11.309-21.8-3.7567-9.757-8.5604-17.791-13.088-26.134-5.6666-9.6974-10.702-12.234-17.97-9.131-1.0252-1.5254-2.0503-3.0507-3.0754-4.576-0.44299-0.65906-0.91367 0.58173-0.47064 1.2405 1.0378 1.543 2.0756 3.0861 3.1134 4.6291 1.7427 14.823 5.3029 22.175 12.49 27.502 5.705 3.6706 11.164 8.3931 16.805 12.375 4.6885 4.6324 9.293 9.3978 12.952 16.996 1.2681 2.8112 2.5122 5.5537 3.1224 9.1876 0.44086 2.6251 2.6624 0.08255 1.7135-1.9479z"/>
   <path d="m236.35 48.133c1.1885-1.2641 2.3493-2.7102 3.5463-3.9885 2.739-3.7917 5.743-6.7551 8.7661-9.5392 2.9917-3.0026 6.1401-5.3628 8.9983-8.8635 2.4145-2.8044 4.0204-6.5884 4.6794-11.948-0.44568-8.1072-5.1555-8.9137-8.4339-10.104-4.4289-2.0028-8.9518-1.8336-13.452-1.3508-3.1373 0.28047-6.0096 1.5446-8.3636 5.7993-2.337 6.36 0.58511 10.335 3.5611 11.652 0.52814 0.4161 1.0562 0.83221 1.5843 1.2483 0.5148 0.40564 0.80408-1.0396 0.28867-1.4423-0.50195-0.39218-1.0039-0.78439-1.5058-1.1766-1.0164-2.1114-1.9047-3.907-1.8747-6.8408 1.5527-4.2261 3.7586-6.3821 6.4068-7.3346 4.3773-1.2892 8.8282-0.78545 13.163 0.95003 2.4404 1.5846 4.9335 3.053 6.1031 7.8917-0.37366 4.044-1.4397 6.989-3.1748 9.5455-2.7172 3.6647-5.594 6.8004-8.5953 9.4611-2.9823 2.9814-5.985 5.9478-9.1249 8.2307-1.3413 1.2508-2.8099 2.1459-3.9559 4.0541-1.2706 2.1159-0.078812 5.3116 1.3838 3.756z"/>
  </g>
 </g>
</svg>
